<svg width="492" height="492" viewBox="0 0 492 492" fill="none" xmlns="http://www.w3.org/2000/svg">
<path d="M58 477L43 464.5L248.5 305.5H482V343.5H270L108.5 480.5L118.5 485H98L58 477Z" fill="#C4C4C4" fill-opacity="0.47"/>
<path d="M248 307V208H492V307H248Z" fill="#B6DADF" fill-opacity="0.47"/>
<path d="M10.5 368.5L247 209.5V306.5L39.5 463H35.5L23 451.5L10.5 414V368.5Z" fill="#B7D4CF" fill-opacity="0.47"/>
<path d="M320.031 425H314.156L317.812 403.969H295.594L291.938 425H286.062L293.969 379.5H299.844L296.438 399.062H318.625L322.031 379.5H327.938L320.031 425Z" fill="white"/>
<path d="M119.531 231.969L138 194.5H144.625L121.125 240H115.938L106.719 194.5H112.875L119.531 231.969Z" fill="white"/>
<path d="M356.75 168.969L356.625 174.469L358.75 169.094L372.344 137.5H377.312L380.906 169.5L381.219 174.688L383.188 168.406L394.812 137.5H400.844L383.031 183H377.688L373.75 149.594L373.625 146.469L372.312 150.094L357.812 183H352.469L348.906 137.5H354.625L356.75 168.969Z" fill="white"/>
<line x1="33.4896" y1="470.008" x2="248.49" y2="307.008" stroke="white" stroke-width="5"/>
<line x1="247.5" y1="309" x2="247.5" stroke="white" stroke-width="5"/>
<line x1="246.989" y1="306.5" x2="478.989" y2="305.5" stroke="white" stroke-width="5"/>
<rect x="6.5" y="6.5" width="478" height="479" rx="83.5" stroke="white" stroke-width="13"/>
</svg>
