<svg width="535" height="393" viewBox="0 0 535 393" fill="none" xmlns="http://www.w3.org/2000/svg">
<rect x="100" y="119" width="265" height="85" fill="#B7D4CF" fill-opacity="0.47"/>
<rect x="365" y="119" width="112" height="85" fill="#B6DADF" fill-opacity="0.47"/>
<rect x="100" y="204" width="265" height="114" fill="#C4C4C4" fill-opacity="0.47"/>
<path d="M191.031 289H185.156L188.812 267.969H166.594L162.938 289H157.062L164.969 243.5H170.844L167.438 263.062H189.625L193.031 243.5H198.938L191.031 289Z" fill="white"/>
<path d="M175.531 133.969L194 96.5H200.625L177.125 142H171.938L162.719 96.5H168.875L175.531 133.969Z" fill="white"/>
<path d="M434.75 127.969L434.625 133.469L436.75 128.094L450.344 96.5H455.312L458.906 128.5L459.219 133.688L461.188 127.406L472.812 96.5H478.844L461.031 142H455.688L451.75 108.594L451.625 105.469L450.312 109.094L435.812 142H430.469L426.906 96.5H432.625L434.75 127.969Z" fill="white"/>
<line x1="14.9899" y1="207.509" x2="513.99" y2="205.5" stroke="white" stroke-width="5"/>
<line x1="15" y1="219.5" x2="44" y2="219.5" stroke="white" stroke-width="5"/>
<line x1="485" y1="219.5" x2="514" y2="219.5" stroke="white" stroke-width="5"/>
<line x1="364.5" y1="15" x2="364.5" y2="393" stroke="white" stroke-width="5"/>
<mask id="path-11-inside-1_1_53" fill="white">
<path d="M450 204C450 215.162 447.801 226.215 443.53 236.528C439.258 246.841 432.997 256.211 425.104 264.104C417.211 271.997 407.841 278.258 397.528 282.53C387.215 286.801 376.162 289 365 289L365 204H450Z"/>
</mask>
<path d="M450 204C450 215.162 447.801 226.215 443.53 236.528C439.258 246.841 432.997 256.211 425.104 264.104C417.211 271.997 407.841 278.258 397.528 282.53C387.215 286.801 376.162 289 365 289L365 204H450Z" stroke="white" stroke-width="6" mask="url(#path-11-inside-1_1_53)"/>
<mask id="path-12-inside-2_1_53" fill="white">
<path d="M418 203.5C418 210.394 416.642 217.221 414.004 223.591C411.365 229.96 407.498 235.748 402.623 240.623C397.748 245.498 391.96 249.365 385.591 252.004C379.221 254.642 372.394 256 365.5 256L365.5 203.5H418Z"/>
</mask>
<path d="M418 203.5C418 210.394 416.642 217.221 414.004 223.591C411.365 229.96 407.498 235.748 402.623 240.623C397.748 245.498 391.96 249.365 385.591 252.004C379.221 254.642 372.394 256 365.5 256L365.5 203.5H418Z" stroke="white" stroke-width="6" mask="url(#path-12-inside-2_1_53)"/>
<mask id="path-13-inside-3_1_53" fill="white">
<path d="M477 203.5C477 218.536 474.038 233.425 468.284 247.317C462.53 261.209 454.096 273.831 443.464 284.464C432.831 295.096 420.209 303.53 406.317 309.284C392.425 315.038 377.536 318 362.5 318L362.5 203.5H477Z"/>
</mask>
<path d="M477 203.5C477 218.536 474.038 233.425 468.284 247.317C462.53 261.209 454.096 273.831 443.464 284.464C432.831 295.096 420.209 303.53 406.317 309.284C392.425 315.038 377.536 318 362.5 318L362.5 203.5H477Z" stroke="white" stroke-width="6" mask="url(#path-13-inside-3_1_53)"/>
<rect x="8.5" y="8.5" width="510" height="376" rx="42.5" stroke="white" stroke-width="17"/>
</svg>
