<svg width="499" height="502" viewBox="0 0 499 502" fill="none" xmlns="http://www.w3.org/2000/svg">
<path d="M249.5 181C237.318 181 225.357 184.248 214.849 190.411C204.341 196.573 195.666 205.426 189.719 216.057C183.771 226.688 180.767 238.713 181.014 250.892C181.262 263.071 184.753 274.964 191.127 285.345L249.5 249.5L249.5 181Z" fill="#81CED9" fill-opacity="0.47"/>
<path d="M305.714 288.644C312.847 278.4 317.046 266.401 317.856 253.945C318.666 241.488 316.056 229.047 310.31 217.965C304.563 206.884 295.898 197.583 285.249 191.069C274.601 184.554 262.375 181.073 249.893 181.001L249.5 249.5L305.714 288.644Z" fill="#B7D5CF" fill-opacity="0.47"/>
<path d="M191.385 285.761C197.43 295.449 205.801 303.472 215.737 309.101C225.672 314.73 236.858 317.785 248.275 317.989C259.693 318.193 270.981 315.54 281.111 310.27C291.242 305 299.895 297.281 306.282 287.815L249.5 249.5L191.385 285.761Z" fill="#C4C4C4" fill-opacity="0.47"/>
<line x1="251.5" x2="251.5" y2="250" stroke="white" stroke-width="5"/>
<line x1="250.32" y1="249.123" x2="36.3196" y2="382.123" stroke="white" stroke-width="5"/>
<line x1="250.426" y1="247.946" x2="456.426" y2="390.946" stroke="white" stroke-width="5"/>
<path d="M491.5 251C491.5 385.524 383.111 494.5 249.5 494.5C115.889 494.5 7.5 385.524 7.5 251C7.5 116.476 115.889 7.5 249.5 7.5C383.111 7.5 491.5 116.476 491.5 251Z" stroke="white" stroke-width="15"/>
<path d="M141.71 201.58L145.468 206.338L143.875 201.016L135.794 169.019L140.178 166.488L163.658 189.594L167.49 193.732L165.267 187.943L155.821 157.457L161.044 154.441L174.241 199.361L169.504 202.096L144.807 178.069L142.451 175.424L143.562 178.788L151.724 212.361L146.988 215.096L114.712 181.191L119.908 178.191L141.71 201.58Z" fill="white"/>
<path d="M343.358 205.429L373.382 179.426L379.065 182.707L341.701 213.674L337.1 211.017L345.263 163.191L350.919 166.457L343.358 205.429Z" fill="white"/>
<path d="M265.938 389H259.906V367.969H236.969V389H230.969V343.5H236.969V363.063H259.906V343.5H265.938V389Z" fill="white"/>
</svg>
